<?xml version="1.0" standalone="no"?>
<!DOCTYPE svg PUBLIC "-//W3C//DTD SVG 20010904//EN"
 "http://www.w3.org/TR/2001/REC-SVG-20010904/DTD/svg10.dtd">
<svg version="1.0" xmlns="http://www.w3.org/2000/svg"
 width="251.000000pt" height="201.000000pt" viewBox="0 0 251.000000 201.000000"
 preserveAspectRatio="xMidYMid meet">
<metadata>
Created by potrace 1.16, written by Peter Selinger 2001-2019
</metadata>
<g transform="translate(0.000000,201.000000) scale(0.100000,-0.100000)"
fill="#000000" stroke="none">
<path d="M885 1268 c11 -100 10 -124 -4 -192 -43 -202 93 -403 299 -445 75
-15 180 -11 180 7 0 7 -24 36 -54 63 -70 64 -92 110 -111 237 -25 170 -80 256
-187 293 -48 17 -50 18 -20 19 84 1 189 -90 235 -202 l26 -63 2 45 c5 125 -16
181 -89 237 -53 40 -156 73 -230 73 l-55 0 8 -72z m88 -212 c34 -33 64 -50
119 -68 80 -25 77 -21 98 -137 12 -65 39 -131 68 -164 8 -9 12 -20 8 -24 -9
-9 -123 15 -161 34 -129 66 -208 210 -190 349 3 30 8 54 9 54 1 0 23 -20 49
-44z"/>
</g>
</svg>
